<svg id="Layer_1" data-name="Layer 1" xmlns="http://www.w3.org/2000/svg" xmlns:xlink="http://www.w3.org/1999/xlink" viewBox="0 0 204.433 65.958"><defs><style>.cls-1{fill:url(#linear-gradient);}.cls-2{fill:#39823e;}</style><linearGradient id="linear-gradient" x1="2.278" y1="33.009" x2="175.449" y2="33.009" gradientUnits="userSpaceOnUse"><stop offset="0" stop-color="#39823e"/><stop offset="0.17" stop-color="#40883e"/><stop offset="0.426" stop-color="#55973d"/><stop offset="0.734" stop-color="#76b03d"/><stop offset="1" stop-color="#99ca3c"/></linearGradient></defs><title>hia-logo-color</title><path class="cls-1" d="M15.22,45.812H2.278l.306-2.2,4.286-1.03V13.888l-4.453-1.5.334-2.115,8.043-.612.7.668V22.154l-.445,2.95h.278q3.924-4.342,8.183-4.342a6.636,6.636,0,0,1,5,1.823q1.767,1.823,1.768,6.554v13.5l4.036.974-.334,2.2h-12.5l.334-2.06,3.841-1.113V29.669a4.875,4.875,0,0,0-1.419-3.91,5.02,5.02,0,0,0-3.368-1.211,7.11,7.11,0,0,0-2.7.543,7.946,7.946,0,0,0-2.672,1.934V42.583l4.063,1Zm27.359.835a9.686,9.686,0,0,1-5.107-1.461,10.508,10.508,0,0,1-3.883-4.356,15.1,15.1,0,0,1-1.475-6.93A13.9,13.9,0,0,1,33.8,26.941a12.148,12.148,0,0,1,4.328-4.564,10.424,10.424,0,0,1,5.427-1.586,7.179,7.179,0,0,1,3.757,1.016A7.043,7.043,0,0,1,50,24.813a10.778,10.778,0,0,1,.988,4.829,15.324,15.324,0,0,1-.139,1.767q-.14,1.128-.306,1.851l-13.471.167a13.716,13.716,0,0,0,1,4.537,8.888,8.888,0,0,0,2.6,3.6,6.345,6.345,0,0,0,4.161,1.405q1.336,0,2.115-.069a8.419,8.419,0,0,0,1.809-.4,15.344,15.344,0,0,0,2.394-1.058l.584,1.475a11.705,11.705,0,0,1-4.05,2.741A13.182,13.182,0,0,1,42.579,46.646Zm-.39-23.128a3.73,3.73,0,0,0-2.282.849,6.413,6.413,0,0,0-1.878,2.588,12.367,12.367,0,0,0-.9,4.3l8.739-.64a5.044,5.044,0,0,0,.125-.9q.041-.6.042-1.016Q46.03,23.518,42.189,23.518ZM69.437,45.812H54.074l.278-2.06,4.258-1.113V25.55l-4.537-1.364.39-2.115,7.988-1.03.64.668-.557,6.4h.529a15.087,15.087,0,0,1,1.865-4.119,9.055,9.055,0,0,1,2.421-2.547,4.57,4.57,0,0,1,2.533-.849,2.9,2.9,0,0,1,2.227.933,3.115,3.115,0,0,1,.863,2.185A3.956,3.956,0,0,1,71.385,26.8a7.885,7.885,0,0,0-1.7-.793,5.461,5.461,0,0,0-1.7-.292,3.347,3.347,0,0,0-1.837.682,6.431,6.431,0,0,0-1.823,2.046,8.794,8.794,0,0,0-1.1,3.34v10.66l6.485.946Zm5.01,0,.334-2.2,4.2-1.03V25.466l-4.2-1.531.362-2.115,7.821-.64.7.7V42.583l4.453,1-.306,2.227Zm6.624-29.78a3.084,3.084,0,0,1-1.656-.473,3.5,3.5,0,0,1-1.656-2.978,2.885,2.885,0,0,1,.988-2.213,3.33,3.33,0,0,1,2.324-.9,3.42,3.42,0,0,1,2.394.918,2.94,2.94,0,0,1,1,2.254,3.279,3.279,0,0,1-.459,1.7,3.415,3.415,0,0,1-1.252,1.239A3.315,3.315,0,0,1,81.071,16.031Zm11.662,8.544H89.2v-1.5a33.34,33.34,0,0,0,3.535-3.423,50.322,50.322,0,0,0,3.34-4.091h1.475v6.624h7.876l-.25,2.449H97.492l-.083,12.3a10.311,10.311,0,0,0,.417,3.284,2.961,2.961,0,0,0,1.308,1.7,4.816,4.816,0,0,0,2.366.5,4.936,4.936,0,0,0,1.809-.348,8.871,8.871,0,0,0,1.544-.766,5.262,5.262,0,0,0,.654-.445l.584,1.5a9.511,9.511,0,0,1-3.256,3.006,8.657,8.657,0,0,1-4.286,1.085,5.564,5.564,0,0,1-4.384-1.767q-1.573-1.767-1.544-6.109Zm20.512,21.9a5.9,5.9,0,0,1-2.728-.64,4.9,4.9,0,0,1-1.99-1.851,5.368,5.368,0,0,1-.738-2.853,6.781,6.781,0,0,1,1.364-4.036,10.252,10.252,0,0,1,4.244-3.187,21.411,21.411,0,0,1,7.223-1.6V30.782a11.093,11.093,0,0,0-1.141-5.33,3.97,3.97,0,0,0-3.785-2.1,2.781,2.781,0,0,0-1.893.529,2.668,2.668,0,0,0-.765,1.586q-.182,1.058-.432,3.869a6.4,6.4,0,0,1-2.755-.529,2.318,2.318,0,0,1-1.113-2.338,3.718,3.718,0,0,1,1.531-2.769,11.819,11.819,0,0,1,3.785-2.129,12.517,12.517,0,0,1,4.2-.807q3.674,0,5.274,2.046t1.6,6.5v10.1a6.451,6.451,0,0,0,.25,2.046,1.968,1.968,0,0,0,.9,1.085,6.135,6.135,0,0,0,1.962.6l1.392.25-.362,2.394q-.417.056-1.28.223a11.244,11.244,0,0,1-2.5.306,4.944,4.944,0,0,1-2.477-.557,3.406,3.406,0,0,1-1.405-1.405,3.848,3.848,0,0,1-.432-1.768v-.417h-.306a8.66,8.66,0,0,1-2.713,2.936A8.184,8.184,0,0,1,113.245,46.479ZM120.62,33.9a14.643,14.643,0,0,0-6.151,2.324,4.465,4.465,0,0,0-1.809,3.6,3.382,3.382,0,0,0,.362,1.475,3.225,3.225,0,0,0,1.072,1.252,2.842,2.842,0,0,0,1.684.5,5.263,5.263,0,0,0,2.672-.779,9.092,9.092,0,0,0,2.171-1.7Zm19.705,22.655a15.79,15.79,0,0,1-7.223-1.461,4.975,4.975,0,0,1-2.853-4.773q0-2.478,4.453-5.01v-.25a4.917,4.917,0,0,1-1.976-1.614,3.773,3.773,0,0,1-.7-2.2,2.755,2.755,0,0,1,.71-1.628,9.184,9.184,0,0,1,1.809-1.712,9.966,9.966,0,0,1,2.129-1.225v-.195a4.679,4.679,0,0,1-1.865-1.21,9.193,9.193,0,0,1-1.879-2.575,7.15,7.15,0,0,1-.793-3.284,7.375,7.375,0,0,1,1.336-4.2,9.88,9.88,0,0,1,3.493-3.159,9.175,9.175,0,0,1,4.467-1.183,9.7,9.7,0,0,1,5.845,1.753q1.113-.056,3.117-.208t2.867-.237l.557.64-1.086,3.089h-.445L148.87,24.8v.473a13.894,13.894,0,0,1,.64,1.837,7.509,7.509,0,0,1,.306,2.032,6.96,6.96,0,0,1-1.433,4.314,9.735,9.735,0,0,1-3.618,2.937,10.042,10.042,0,0,1-4.356,1.043,10.831,10.831,0,0,1-1.447-.1,10.679,10.679,0,0,1-1.058-.181,3.992,3.992,0,0,0-1.392,2.449,1.613,1.613,0,0,0,1.043,1.489,10.5,10.5,0,0,0,4.05.515h3.785a10.406,10.406,0,0,1,5.553,1.336A4.636,4.636,0,0,1,153.1,47.2a6.868,6.868,0,0,1-1.851,4.522,13.542,13.542,0,0,1-4.829,3.493A14.754,14.754,0,0,1,140.325,56.555ZM136.6,45.728q0-.083-.4.25a2.878,2.878,0,0,0-.724,1.016,4.332,4.332,0,0,0-.32,1.823q0,4.759,6.68,4.759a8.485,8.485,0,0,0,4.773-1.2,4.222,4.222,0,0,0,1.795-3.785,2.344,2.344,0,0,0-.682-1.837,4.024,4.024,0,0,0-2.129-.821,31.182,31.182,0,0,0-4.147-.208Zm4.175-22.822a3.5,3.5,0,0,0-3.131,1.586,7.942,7.942,0,0,0-1.044,4.4,7.485,7.485,0,0,0,.7,3.284,6.009,6.009,0,0,0,1.767,2.254,3.534,3.534,0,0,0,2.129.807,3.621,3.621,0,0,0,3.02-1.364,6.768,6.768,0,0,0,1.071-4.2,9.5,9.5,0,0,0-.543-3.145,6.8,6.8,0,0,0-1.559-2.588A3.27,3.27,0,0,0,140.771,22.906Zm25.521,23.741a9.685,9.685,0,0,1-5.106-1.461A10.508,10.508,0,0,1,157.3,40.83a15.1,15.1,0,0,1-1.476-6.93,13.9,13.9,0,0,1,1.685-6.958,12.151,12.151,0,0,1,4.327-4.564,10.425,10.425,0,0,1,5.428-1.586,7.184,7.184,0,0,1,3.758,1.016,7.045,7.045,0,0,1,2.686,3.006,10.777,10.777,0,0,1,.988,4.829,15.345,15.345,0,0,1-.14,1.767,18.661,18.661,0,0,1-.306,1.851l-13.471.167a13.692,13.692,0,0,0,1,4.537,8.878,8.878,0,0,0,2.6,3.6,6.345,6.345,0,0,0,4.161,1.405q1.336,0,2.115-.069a8.428,8.428,0,0,0,1.81-.4,15.358,15.358,0,0,0,2.393-1.058l.585,1.475a11.705,11.705,0,0,1-4.05,2.741A13.184,13.184,0,0,1,166.292,46.646ZM165.9,23.518a3.734,3.734,0,0,0-2.283.849,6.412,6.412,0,0,0-1.878,2.588,12.367,12.367,0,0,0-.905,4.3l8.74-.64a5.145,5.145,0,0,0,.125-.9q.041-.6.041-1.016Q169.743,23.518,165.9,23.518Z"/><path class="cls-2" d="M8.3,52.788l.083-.742A3.21,3.21,0,0,1,9.8,51.74a1.357,1.357,0,0,1,.96.269,1.127,1.127,0,0,1,.273.835,4.782,4.782,0,0,1-.056.687l-.427,2.922q-.111.789-.162,1.211a5.986,5.986,0,0,0-.051.7.686.686,0,0,0,.152.492.648.648,0,0,0,.39.19,4.123,4.123,0,0,0,.636.023l-.074.751a2.658,2.658,0,0,1-.589.208,2.974,2.974,0,0,1-.719.088,1.468,1.468,0,0,1-1.03-.292,1.266,1.266,0,0,1-.306-.951,5.23,5.23,0,0,1,.056-.714l.658-4.592a1.87,1.87,0,0,0,.019-.213.475.475,0,0,0-.213-.459,1.352,1.352,0,0,0-.631-.116ZM9.794,49.04a1.062,1.062,0,0,1,.533-.918,1.12,1.12,0,0,1,.571-.148.949.949,0,0,1,.709.3,1.029,1.029,0,0,1,.293.747.946.946,0,0,1-.32.728,1.119,1.119,0,0,1-.784.292.969.969,0,0,1-.705-.292A.956.956,0,0,1,9.794,49.04Z"/><path class="cls-2" d="M14.377,51.666a1.6,1.6,0,0,1,.983.25.922.922,0,0,1,.325.779,2.829,2.829,0,0,1-.074.566h.111A4.891,4.891,0,0,1,16.9,52.153a2.551,2.551,0,0,1,1.461-.478q1.559,0,1.559,1.7a5.533,5.533,0,0,1-.084.9l-.324,2.18a13.9,13.9,0,0,0-.214,1.883.686.686,0,0,0,.153.492.651.651,0,0,0,.39.19,4.19,4.19,0,0,0,.636.023l-.074.751a2.719,2.719,0,0,1-.589.209,3.006,3.006,0,0,1-.72.088A1.508,1.508,0,0,1,18.05,59.8a1.206,1.206,0,0,1-.315-.923,4.629,4.629,0,0,1,.074-.742l.474-3.043a5.828,5.828,0,0,0,.074-.835,1.477,1.477,0,0,0-.232-.9.893.893,0,0,0-.761-.306,2.041,2.041,0,0,0-.974.213,3.525,3.525,0,0,0-.761.557l-.882,6.142H13.236l.854-6.466c.012-.1.019-.164.019-.195a.493.493,0,0,0-.218-.473,1.322,1.322,0,0,0-.627-.121l-.39.009.084-.742A3.206,3.206,0,0,1,14.377,51.666Z"/><path class="cls-2" d="M24.851,51.591a2.789,2.789,0,0,1,1.475.348,1.139,1.139,0,0,1,.566,1.035.992.992,0,0,1-.315.77,1.446,1.446,0,0,1-.882.334,5.44,5.44,0,0,0-.292-1.03,1.386,1.386,0,0,0-.4-.566.993.993,0,0,0-.622-.186,1.094,1.094,0,0,0-1.141,1.2,1.245,1.245,0,0,0,.2.677,2.577,2.577,0,0,0,.492.57q.292.256.812.645.593.437.965.77a3.143,3.143,0,0,1,.626.779,1.945,1.945,0,0,1,.255.983,1.832,1.832,0,0,1-.449,1.188,3.13,3.13,0,0,1-1.146.863,3.331,3.331,0,0,1-1.382.315,3.478,3.478,0,0,1-1.331-.232,2.028,2.028,0,0,1-.854-.607,1.283,1.283,0,0,1-.293-.8.971.971,0,0,1,.32-.724,1.407,1.407,0,0,1,.886-.353,4.348,4.348,0,0,0,.349,1.15,1.256,1.256,0,0,0,.533.575,1.819,1.819,0,0,0,.835.167,1.072,1.072,0,0,0,.807-.315,1.041,1.041,0,0,0,.307-.751,1.131,1.131,0,0,0-.186-.622,2.289,2.289,0,0,0-.459-.515q-.274-.228-.757-.571a11.32,11.32,0,0,1-.974-.756,3.091,3.091,0,0,1-.636-.793,2.1,2.1,0,0,1-.265-1.058,2.069,2.069,0,0,1,.4-1.2,2.946,2.946,0,0,1,1.081-.932A3.136,3.136,0,0,1,24.851,51.591Z"/><path class="cls-2" d="M32.644,58.03l.64-4.462a1.9,1.9,0,0,0,.019-.195.492.492,0,0,0-.218-.473,1.32,1.32,0,0,0-.626-.121l-.39.009.083-.742a3.21,3.21,0,0,1,1.42-.306,1.339,1.339,0,0,1,.965.273,1.174,1.174,0,0,1,.269.849q0,.167-.056.668l-.658,4.824a1.448,1.448,0,0,0-.019.186.489.489,0,0,0,.134.38.734.734,0,0,0,.395.158l.612.111-.167.64q-.362.13-.691.213a2.718,2.718,0,0,1-.672.083q-1.085,0-1.086-.983a2.49,2.49,0,0,1,.065-.557h-.111a4.9,4.9,0,0,1-1.174,1.108,2.554,2.554,0,0,1-1.461.478,1.5,1.5,0,0,1-1.165-.422,1.905,1.905,0,0,1-.385-1.312,5.965,5.965,0,0,1,.074-.863l.575-4.008a1.9,1.9,0,0,0,.019-.195.492.492,0,0,0-.218-.473,1.32,1.32,0,0,0-.626-.121l-.39.009.083-.742a3.21,3.21,0,0,1,1.42-.306,1.376,1.376,0,0,1,.965.269,1.1,1.1,0,0,1,.278.826,3.972,3.972,0,0,1-.065.7l-.491,3.229a5.7,5.7,0,0,0-.074.835,1.477,1.477,0,0,0,.231.9.893.893,0,0,0,.761.306,2.042,2.042,0,0,0,.975-.213A3.516,3.516,0,0,0,32.644,58.03Z"/><path class="cls-2" d="M37.914,59.959h-1.55l.854-6.466a1.439,1.439,0,0,0,.01-.186.505.505,0,0,0-.214-.482,1.291,1.291,0,0,0-.621-.121l-.39.009.083-.742a3.21,3.21,0,0,1,1.42-.306,1.556,1.556,0,0,1,.983.255.962.962,0,0,1,.315.793,3.432,3.432,0,0,1-.065.547l-.213,1.067h.1a7.45,7.45,0,0,1,.548-1.257,3.958,3.958,0,0,1,.751-1,1.264,1.264,0,0,1,.863-.39.854.854,0,0,1,.653.25.881.881,0,0,1,.237.631,1.759,1.759,0,0,1-.52,1.225,1.027,1.027,0,0,0-.367-.25,1.281,1.281,0,0,0-.431-.065,1.362,1.362,0,0,0-1.025.552,5.6,5.6,0,0,0-.8,1.22Z"/><path class="cls-2" d="M47.544,56.453a14.994,14.994,0,0,0-.2,1.837,1.127,1.127,0,0,0,.106.575.48.48,0,0,0,.357.2l.705.111-.167.64a4.107,4.107,0,0,1-1.4.3,1.33,1.33,0,0,1-.881-.278.917.917,0,0,1-.334-.742,1.323,1.323,0,0,1,.056-.362H45.67a2.885,2.885,0,0,1-.928,1.016,2.2,2.2,0,0,1-1.262.4,1.558,1.558,0,0,1-.988-.33,2.067,2.067,0,0,1-.649-.951,4.24,4.24,0,0,1-.228-1.457,6.031,6.031,0,0,1,.729-3.015,5.352,5.352,0,0,1,1.827-1.971,4.106,4.106,0,0,1,2.176-.682q1.475,0,1.865.492Zm-1.717,1.642.8-5.056a1.591,1.591,0,0,0-1.1-.325,1.631,1.631,0,0,0-1.258.64,4.457,4.457,0,0,0-.854,1.633,6.89,6.89,0,0,0-.3,2,3.072,3.072,0,0,0,.282,1.5.916.916,0,0,0,.84.482,1.574,1.574,0,0,0,.849-.228A3.476,3.476,0,0,0,45.827,58.095Z"/><path class="cls-2" d="M50.985,51.666a1.6,1.6,0,0,1,.983.25.922.922,0,0,1,.325.779,2.829,2.829,0,0,1-.074.566h.111A4.891,4.891,0,0,1,53.5,52.153a2.551,2.551,0,0,1,1.461-.478q1.559,0,1.559,1.7a5.533,5.533,0,0,1-.084.9l-.324,2.18a13.9,13.9,0,0,0-.214,1.883.686.686,0,0,0,.153.492.651.651,0,0,0,.39.19,4.19,4.19,0,0,0,.636.023l-.074.751a2.719,2.719,0,0,1-.589.209,3.006,3.006,0,0,1-.72.088,1.508,1.508,0,0,1-1.039-.292,1.206,1.206,0,0,1-.315-.923,4.629,4.629,0,0,1,.074-.742l.474-3.043a5.828,5.828,0,0,0,.074-.835,1.477,1.477,0,0,0-.232-.9.893.893,0,0,0-.761-.306,2.041,2.041,0,0,0-.974.213,3.525,3.525,0,0,0-.761.557l-.882,6.142H49.844l.854-6.466c.012-.1.019-.164.019-.195a.493.493,0,0,0-.218-.473,1.322,1.322,0,0,0-.627-.121l-.39.009.084-.742A3.206,3.206,0,0,1,50.985,51.666Z"/><path class="cls-2" d="M61.144,58.976A3.85,3.85,0,0,0,63.12,58.3l.223.566a3.942,3.942,0,0,1-1.3.941,3.639,3.639,0,0,1-1.559.376,3.04,3.04,0,0,1-1.475-.343,2.354,2.354,0,0,1-.983-1.035,3.712,3.712,0,0,1-.353-1.7,5.685,5.685,0,0,1,.663-2.737,5.3,5.3,0,0,1,1.717-1.939,3.847,3.847,0,0,1,2.166-.705,1.882,1.882,0,0,1,1.267.395,1.329,1.329,0,0,1,.459,1.062.788.788,0,0,1-.344.668,1.674,1.674,0,0,1-.854.3,8.3,8.3,0,0,0-.311-.821,1.438,1.438,0,0,0-.371-.5.912.912,0,0,0-.617-.2,1.526,1.526,0,0,0-1.225.6,3.781,3.781,0,0,0-.719,1.48,6.94,6.94,0,0,0-.228,1.735,3.269,3.269,0,0,0,.455,1.911A1.619,1.619,0,0,0,61.144,58.976Z"/><path class="cls-2" d="M66.544,60.238q-2.3,0-2.3-2.959a7.014,7.014,0,0,1,.543-2.76,5.341,5.341,0,0,1,1.447-2.05,2.931,2.931,0,0,1,1.925-.766,1.6,1.6,0,0,1,1.229.5,1.9,1.9,0,0,1,.459,1.341,2.425,2.425,0,0,1-1.179,2.329,5.6,5.6,0,0,1-2.895.6c-.013.248-.019.424-.019.529a2.789,2.789,0,0,0,.33,1.5,1.159,1.159,0,0,0,1.053.51,3.144,3.144,0,0,0,1.22-.223,3.057,3.057,0,0,0,.821-.473l.241.417a2.924,2.924,0,0,1-.673.691,4.27,4.27,0,0,1-1.029.58A3.146,3.146,0,0,1,66.544,60.238ZM67.6,52.556a1.233,1.233,0,0,0-.771.292,2.319,2.319,0,0,0-.645,1.016,6.426,6.426,0,0,0-.329,1.93,5.356,5.356,0,0,0,1.341-.163,1.7,1.7,0,0,0,.909-.589,1.936,1.936,0,0,0,.348-1.234,1.628,1.628,0,0,0-.232-.886A.706.706,0,0,0,67.6,52.556Z"/><path class="cls-2" d="M79.967,56.453a15.2,15.2,0,0,0-.2,1.837,1.125,1.125,0,0,0,.107.575.476.476,0,0,0,.356.2l.705.111-.167.64a4.107,4.107,0,0,1-1.4.3,1.333,1.333,0,0,1-.882-.278.917.917,0,0,1-.334-.742,1.323,1.323,0,0,1,.056-.362h-.111a2.885,2.885,0,0,1-.928,1.016,2.2,2.2,0,0,1-1.262.4,1.557,1.557,0,0,1-.987-.33,2.059,2.059,0,0,1-.649-.951,4.217,4.217,0,0,1-.228-1.457,6.021,6.021,0,0,1,.729-3.015A5.352,5.352,0,0,1,76.6,52.431a4.106,4.106,0,0,1,2.176-.682q1.475,0,1.864.492Zm-1.716,1.642.8-5.056a1.594,1.594,0,0,0-1.1-.325,1.631,1.631,0,0,0-1.257.64,4.442,4.442,0,0,0-.854,1.633,6.859,6.859,0,0,0-.3,2,3.071,3.071,0,0,0,.283,1.5.915.915,0,0,0,.84.482,1.574,1.574,0,0,0,.849-.228A3.5,3.5,0,0,0,78.252,58.095Z"/><path class="cls-2" d="M87.538,47.741a1.374,1.374,0,0,1,.965.269,1.1,1.1,0,0,1,.278.826,3.968,3.968,0,0,1-.064.7l-1.076,6.9a17.049,17.049,0,0,0-.251,2.041.756.756,0,0,0,.088.432.474.474,0,0,0,.312.153l.612.1-.177.64a6.374,6.374,0,0,1-.64.213,2.46,2.46,0,0,1-.649.083,1.24,1.24,0,0,1-.821-.227.808.808,0,0,1-.283-.6,2.251,2.251,0,0,1,.047-.445h-.121a2.77,2.77,0,0,1-.923.951,2.317,2.317,0,0,1-1.267.375,1.778,1.778,0,0,1-1.493-.714,3.475,3.475,0,0,1-.548-2.134,5.745,5.745,0,0,1,.737-2.95,5.186,5.186,0,0,1,1.9-1.93,4.744,4.744,0,0,1,2.389-.668,1.874,1.874,0,0,1,.381.028h.056l.26-2.217a1.074,1.074,0,0,0,.009-.158.538.538,0,0,0-.213-.505,1.243,1.243,0,0,0-.622-.125l-.39.009.084-.742A3.206,3.206,0,0,1,87.538,47.741ZM84.282,58.976a1.756,1.756,0,0,0,.918-.228,2.421,2.421,0,0,0,.7-.654l.761-4.963a2.336,2.336,0,0,0-.511-.306,1.679,1.679,0,0,0-.658-.111,1.727,1.727,0,0,0-1.258.571,3.859,3.859,0,0,0-.876,1.517,6.367,6.367,0,0,0-.315,2.032,3.348,3.348,0,0,0,.3,1.637A1.019,1.019,0,0,0,84.282,58.976Z"/><path class="cls-2" d="M95.211,51.7a1.068,1.068,0,0,1,.83.283,1.2,1.2,0,0,1,.255.83,8.33,8.33,0,0,1-1.044,2.941q-1.043,2.115-2.342,4.3l-.965.167-1.169-6.652a1.472,1.472,0,0,0-.177-.505.531.531,0,0,0-.273-.228,1.329,1.329,0,0,0-.422-.056l-.371.009.083-.742a2.851,2.851,0,0,1,1.327-.306,1.17,1.17,0,0,1,.783.228,1.2,1.2,0,0,1,.371.617,10.235,10.235,0,0,1,.219,1.169l.658,4.769q.677-1.187,1.067-1.981a9.465,9.465,0,0,0,.626-1.646,6.656,6.656,0,0,0,.236-1.781.348.348,0,0,0-.148-.306.675.675,0,0,0-.39-.1,1.425,1.425,0,0,0-.38.046l.083-.742A2.175,2.175,0,0,1,95.211,51.7Z"/><path class="cls-2" d="M97.066,52.788l.083-.742a3.21,3.21,0,0,1,1.42-.306,1.357,1.357,0,0,1,.96.269,1.127,1.127,0,0,1,.273.835,4.782,4.782,0,0,1-.056.687l-.427,2.922q-.111.789-.162,1.211a5.986,5.986,0,0,0-.051.7.686.686,0,0,0,.152.492.648.648,0,0,0,.39.19,4.123,4.123,0,0,0,.636.023l-.074.751a2.658,2.658,0,0,1-.589.208,2.974,2.974,0,0,1-.719.088,1.468,1.468,0,0,1-1.03-.292,1.266,1.266,0,0,1-.306-.951,5.23,5.23,0,0,1,.056-.714l.658-4.592a1.87,1.87,0,0,0,.019-.213.475.475,0,0,0-.213-.459,1.352,1.352,0,0,0-.631-.116Zm1.493-3.748a1.062,1.062,0,0,1,.533-.918,1.12,1.12,0,0,1,.571-.148.949.949,0,0,1,.709.3,1.029,1.029,0,0,1,.293.747.946.946,0,0,1-.32.728,1.119,1.119,0,0,1-.784.292.969.969,0,0,1-.705-.292A.956.956,0,0,1,98.559,49.04Z"/><path class="cls-2" d="M105.045,51.591a2.789,2.789,0,0,1,1.475.348,1.139,1.139,0,0,1,.566,1.035.992.992,0,0,1-.315.77,1.446,1.446,0,0,1-.882.334,5.44,5.44,0,0,0-.292-1.03,1.386,1.386,0,0,0-.4-.566.993.993,0,0,0-.622-.186,1.094,1.094,0,0,0-1.141,1.2,1.245,1.245,0,0,0,.2.677,2.577,2.577,0,0,0,.492.57q.292.256.812.645.593.437.965.77a3.143,3.143,0,0,1,.626.779,1.945,1.945,0,0,1,.255.983,1.832,1.832,0,0,1-.449,1.188,3.13,3.13,0,0,1-1.146.863,3.331,3.331,0,0,1-1.382.315,3.478,3.478,0,0,1-1.331-.232,2.028,2.028,0,0,1-.854-.607,1.283,1.283,0,0,1-.293-.8.971.971,0,0,1,.32-.724,1.407,1.407,0,0,1,.886-.353,4.348,4.348,0,0,0,.349,1.15,1.256,1.256,0,0,0,.533.575,1.819,1.819,0,0,0,.835.167,1.072,1.072,0,0,0,.807-.315,1.041,1.041,0,0,0,.307-.751,1.131,1.131,0,0,0-.186-.622,2.289,2.289,0,0,0-.459-.515q-.274-.228-.757-.571a11.32,11.32,0,0,1-.974-.756,3.091,3.091,0,0,1-.636-.793,2.1,2.1,0,0,1-.265-1.058,2.069,2.069,0,0,1,.4-1.2,2.946,2.946,0,0,1,1.081-.932A3.136,3.136,0,0,1,105.045,51.591Z"/><path class="cls-2" d="M114.461,55.182a5.711,5.711,0,0,1-.533,2.412,4.88,4.88,0,0,1-1.484,1.883,3.442,3.442,0,0,1-2.139.724,2.371,2.371,0,0,1-1.461-.455,2.753,2.753,0,0,1-.914-1.239,4.824,4.824,0,0,1-.306-1.767,5.733,5.733,0,0,1,.547-2.472,4.866,4.866,0,0,1,1.513-1.879,3.53,3.53,0,0,1,2.152-.714,2.192,2.192,0,0,1,1.456.5,2.958,2.958,0,0,1,.882,1.294A5.033,5.033,0,0,1,114.461,55.182Zm-3.571,3.906a1.649,1.649,0,0,0,1.5-.933,5.244,5.244,0,0,0,.528-2.574,4.1,4.1,0,0,0-.445-2.009,1.476,1.476,0,0,0-1.382-.8,1.428,1.428,0,0,0-1.012.413,2.75,2.75,0,0,0-.682,1.225,6.79,6.79,0,0,0-.246,1.953,4.327,4.327,0,0,0,.228,1.489,2.048,2.048,0,0,0,.621.928A1.4,1.4,0,0,0,110.889,59.087Z"/><path class="cls-2" d="M117.5,59.959h-1.549l.854-6.466a1.474,1.474,0,0,0,.009-.186.507.507,0,0,0-.213-.482,1.292,1.292,0,0,0-.622-.121l-.39.009.084-.742a3.206,3.206,0,0,1,1.419-.306,1.554,1.554,0,0,1,.983.255.962.962,0,0,1,.315.793,3.406,3.406,0,0,1-.064.547l-.214,1.067h.1a7.368,7.368,0,0,1,.547-1.257,3.961,3.961,0,0,1,.752-1,1.261,1.261,0,0,1,.862-.39.856.856,0,0,1,.654.25.88.88,0,0,1,.236.631,1.707,1.707,0,0,1-.13.64,1.733,1.733,0,0,1-.39.584,1.024,1.024,0,0,0-.366-.25,1.287,1.287,0,0,0-.432-.065,1.36,1.36,0,0,0-1.024.552,5.527,5.527,0,0,0-.8,1.22Z"/><path class="cls-2" d="M124.991,51.591a2.789,2.789,0,0,1,1.475.348,1.139,1.139,0,0,1,.566,1.035.992.992,0,0,1-.315.77,1.446,1.446,0,0,1-.882.334,5.44,5.44,0,0,0-.292-1.03,1.386,1.386,0,0,0-.4-.566.993.993,0,0,0-.622-.186,1.094,1.094,0,0,0-1.141,1.2,1.245,1.245,0,0,0,.2.677,2.577,2.577,0,0,0,.492.57q.292.256.812.645.593.437.965.77a3.143,3.143,0,0,1,.626.779,1.945,1.945,0,0,1,.255.983,1.832,1.832,0,0,1-.449,1.188,3.13,3.13,0,0,1-1.146.863,3.331,3.331,0,0,1-1.382.315,3.478,3.478,0,0,1-1.331-.232,2.028,2.028,0,0,1-.854-.607,1.283,1.283,0,0,1-.293-.8.971.971,0,0,1,.32-.724,1.407,1.407,0,0,1,.886-.353,4.348,4.348,0,0,0,.349,1.15,1.256,1.256,0,0,0,.533.575,1.819,1.819,0,0,0,.835.167,1.072,1.072,0,0,0,.807-.315,1.041,1.041,0,0,0,.307-.751,1.131,1.131,0,0,0-.186-.622,2.289,2.289,0,0,0-.459-.515q-.274-.228-.757-.571a11.32,11.32,0,0,1-.974-.756,3.091,3.091,0,0,1-.636-.793,2.1,2.1,0,0,1-.265-1.058,2.069,2.069,0,0,1,.4-1.2,2.946,2.946,0,0,1,1.081-.932A3.136,3.136,0,0,1,124.991,51.591Z"/></svg>